<svg width="422" height="80" viewBox="0 0 422 80" fill="none" xmlns="http://www.w3.org/2000/svg">
<rect width="428" height="80" transform="translate(-6)" fill="white"/>
<g clip-path="url(#clip0_128_3576)">
<path d="M24 52H60V48H24V52ZM24 42H60V38H24V42ZM24 28V32H60V28H24Z" fill="#002F52"/>
</g>
<path d="M110 21.7188L126.148 55.8849H93.8511L110 21.7188Z" fill="#FECD2F"/>
<path fill-rule="evenodd" clip-rule="evenodd" d="M100.46 51.7672H119.54L110 31.5835L100.46 51.7672ZM90 54.1661L106.149 20H113.851L130 54.1661L126.149 60H93.8514L90 54.1661Z" fill="url(#paint0_linear_128_3576)"/>
<path d="M262.409 24C259.374 24 256.462 25.4125 254.561 27.6447C252.66 25.4125 249.748 24 246.714 24C241.343 24 237.123 28.2202 237.123 33.5913C237.123 40.1831 243.052 45.5542 252.033 53.7155L254.561 56L257.09 53.6981C266.071 45.5542 272 40.1831 272 33.5913C272 28.2202 267.78 24 262.409 24ZM254.736 51.1172L254.561 51.2916L254.387 51.1172C246.086 43.6011 240.61 38.6311 240.61 33.5913C240.61 30.1035 243.226 27.4877 246.714 27.4877C249.399 27.4877 252.015 29.2142 252.939 31.6033H256.2C257.107 29.2142 259.723 27.4877 262.409 27.4877C265.896 27.4877 268.512 30.1035 268.512 33.5913C268.512 38.6311 263.036 43.6011 254.736 51.1172Z" fill="url(#paint1_linear_128_3576)"/>
<g clip-path="url(#clip1_128_3576)">
<path d="M324.5 28.4993H321.333C321.333 25.0002 318.499 22.166 315 22.166C311.501 22.166 308.667 25.0002 308.667 28.4993H305.5C303.758 28.4993 302.333 29.9243 302.333 31.666V50.666C302.333 52.4077 303.758 53.8327 305.5 53.8327H324.5C326.242 53.8327 327.667 52.4077 327.667 50.666V31.666C327.667 29.9243 326.242 28.4993 324.5 28.4993ZM315 25.3327C316.742 25.3327 318.167 26.7577 318.167 28.4993H311.833C311.833 26.7577 313.258 25.3327 315 25.3327ZM324.5 50.666H305.5V31.666H308.667V34.8327C308.667 35.7035 309.379 36.416 310.25 36.416C311.121 36.416 311.833 35.7035 311.833 34.8327V31.666H318.167V34.8327C318.167 35.7035 318.879 36.416 319.75 36.416C320.621 36.416 321.333 35.7035 321.333 34.8327V31.666H324.5V50.666Z" fill="#002F52"/>
</g>
<path d="M374 24C365.168 24 358 31.168 358 40C358 48.832 365.168 56 374 56C382.832 56 390 48.832 390 40C390 31.168 382.832 24 374 24ZM366.112 50.048C366.8 48.608 370.992 47.2 374 47.2C377.008 47.2 381.216 48.608 381.888 50.048C379.712 51.776 376.976 52.8 374 52.8C371.024 52.8 368.288 51.776 366.112 50.048ZM384.176 47.728C381.888 44.944 376.336 44 374 44C371.664 44 366.112 44.944 363.824 47.728C362.192 45.584 361.2 42.912 361.2 40C361.2 32.944 366.944 27.2 374 27.2C381.056 27.2 386.8 32.944 386.8 40C386.8 42.912 385.808 45.584 384.176 47.728V47.728ZM374 30.4C370.896 30.4 368.4 32.896 368.4 36C368.4 39.104 370.896 41.6 374 41.6C377.104 41.6 379.6 39.104 379.6 36C379.6 32.896 377.104 30.4 374 30.4ZM374 38.4C372.672 38.4 371.6 37.328 371.6 36C371.6 34.672 372.672 33.6 374 33.6C375.328 33.6 376.4 34.672 376.4 36C376.4 37.328 375.328 38.4 374 38.4Z" fill="#002F52"/>
<defs>
<linearGradient id="paint0_linear_128_3576" x1="110" y1="20" x2="110" y2="60" gradientUnits="userSpaceOnUse">
<stop offset="0.677083" stop-color="#FD8325"/>
<stop offset="1" stop-color="#FC6621"/>
</linearGradient>
<linearGradient id="paint1_linear_128_3576" x1="251.695" y1="20.16" x2="301.945" y2="27.4119" gradientUnits="userSpaceOnUse">
<stop stop-color="#002F52"/>
<stop offset="1" stop-color="#326589"/>
</linearGradient>
<clipPath id="clip0_128_3576">
<rect width="48" height="48" fill="white" transform="translate(18 16)"/>
</clipPath>
<clipPath id="clip1_128_3576">
<rect width="38" height="38" fill="white" transform="translate(296 19)"/>
</clipPath>
</defs>
</svg>
